<svg width="24" height="24" viewBox="0 0 24 24" fill="none" xmlns="http://www.w3.org/2000/svg">
<path d="M11.07 12H12C9.79 12 8 10.21 8 8C8 5.79 9.79 4 12 4C14.21 4 16 5.79 16 8C16 10.21 14.21 12 12 12H12.9C17.3 12 20.88 15.49 20.96 19.85V19.96C22.85 17.84 24 15.06 24 12C24 5.37 18.63 0 12 0C5.37 0 0 5.37 0 12C0 15.04 1.14 17.81 3.01 19.93C3.05 15.55 6.63 12 11.07 12Z" fill="#666666"/>
<path d="M12 12C14.2091 12 16 10.2091 16 8C16 5.79086 14.2091 4 12 4C9.79086 4 8 5.79086 8 8C8 10.2091 9.79086 12 12 12Z" fill="#EEEEEE"/>
<path d="M20.96 19.96V19.85C20.88 15.49 17.29 12 12.9 12H12H11.07C6.63001 12 3.05001 15.55 3.01001 19.93C5.21001 22.42 8.42001 24 12 24C15.57 24 18.76 22.43 20.96 19.96Z" fill="#EEEEEE"/>
</svg>
