<svg width="24" height="24" viewBox="0 0 24 24" fill="none" xmlns="http://www.w3.org/2000/svg">
<path d="M12.048 4.68H7.638V18H12.39C13.122 18 13.8 17.922 14.424 17.766C15.06 17.61 15.606 17.37 16.062 17.046C16.53 16.722 16.896 16.314 17.16 15.822C17.424 15.33 17.556 14.748 17.556 14.076C17.556 13.176 17.316 12.468 16.836 11.952C16.368 11.436 15.774 11.094 15.054 10.926V10.836C15.342 10.74 15.594 10.596 15.81 10.404C16.038 10.2 16.23 9.966 16.386 9.702C16.542 9.438 16.662 9.156 16.746 8.856C16.83 8.556 16.872 8.256 16.872 7.956C16.872 7.332 16.746 6.81 16.494 6.39C16.254 5.97 15.918 5.634 15.486 5.382C15.054 5.13 14.544 4.95 13.956 4.842C13.368 4.734 12.732 4.68 12.048 4.68ZM11.85 10.098H10.302V6.714H11.886C12.69 6.714 13.29 6.84 13.686 7.092C14.082 7.344 14.28 7.764 14.28 8.352C14.28 8.892 14.088 9.318 13.704 9.63C13.332 9.942 12.714 10.098 11.85 10.098ZM12.156 15.948H10.302V12.078H12.156C13.092 12.078 13.794 12.222 14.262 12.51C14.73 12.798 14.964 13.266 14.964 13.914C14.964 14.61 14.724 15.126 14.244 15.462C13.764 15.786 13.068 15.948 12.156 15.948Z" fill="#C4C4C4"/>
</svg>
