<svg width="24" height="24" viewBox="0 0 24 24" fill="none" xmlns="http://www.w3.org/2000/svg">
<path fill-rule="evenodd" clip-rule="evenodd" d="M12 22C17.5228 22 22 17.5228 22 12C22 6.47715 17.5228 2 12 2C6.47715 2 2 6.47715 2 12C2 17.5228 6.47715 22 12 22ZM12 20C16.4183 20 20 16.4183 20 12C20 7.58172 16.4183 4 12 4C7.58172 4 4 7.58172 4 12C4 16.4183 7.58172 20 12 20Z" fill="#C4C4C4"/>
<circle cx="8.5" cy="9.5" r="1.5" fill="#C4C4C4"/>
<circle cx="15.5" cy="9.5" r="1.5" fill="#C4C4C4"/>
<path d="M8 14C8 14.5253 8.10346 15.0454 8.30448 15.5307C8.5055 16.016 8.80014 16.457 9.17157 16.8284C9.54301 17.1999 9.98396 17.4945 10.4693 17.6955C10.9546 17.8965 11.4747 18 12 18C12.5253 18 13.0454 17.8965 13.5307 17.6955C14.016 17.4945 14.457 17.1999 14.8284 16.8284C15.1999 16.457 15.4945 16.016 15.6955 15.5307C15.8965 15.0454 16 14.5253 16 14H14.7401C14.7401 14.3598 14.6692 14.7161 14.5315 15.0486C14.3938 15.381 14.192 15.6831 13.9375 15.9375C13.6831 16.192 13.381 16.3938 13.0486 16.5315C12.7161 16.6692 12.3598 16.7401 12 16.7401C11.6402 16.7401 11.2839 16.6692 10.9514 16.5315C10.619 16.3938 10.3169 16.192 10.0625 15.9375C9.80804 15.6831 9.60621 15.381 9.46851 15.0486C9.33081 14.7161 9.25994 14.3598 9.25994 14L8 14Z" fill="#C4C4C4"/>
</svg>
