<svg width="24" height="24" viewBox="0 0 24 24" fill="none" xmlns="http://www.w3.org/2000/svg">
<path d="M12 3C13.5656 2.99951 15.0695 3.61102 16.1905 4.704C17.3115 5.79698 17.9609 7.28484 18 8.85C18.0006 9.71891 17.8004 10.5762 17.415 11.355C17.13 11.865 14.31 16.185 11.985 19.725C9.66001 16.14 6.83999 11.76 6.59999 11.325C6.2129 10.5569 6.00762 9.71009 6 8.85C6.03914 7.28484 6.68851 5.79698 7.80952 4.704C8.93052 3.61102 10.4344 2.99951 12 3ZM12 1.5C10.0366 1.49961 8.15133 2.26916 6.74904 3.6434C5.34675 5.01765 4.53927 6.88699 4.5 8.85C4.50292 9.94215 4.75427 11.0193 5.23501 12C5.49001 12.525 11.97 22.5 11.97 22.5C11.97 22.5 18.48 12.585 18.735 12.075C19.2368 11.0739 19.4987 9.9698 19.5 8.85C19.4607 6.88699 18.6533 5.01765 17.251 3.6434C15.8487 2.26916 13.9634 1.49961 12 1.5Z" fill="#C4C4C4"/>
<path d="M12 12C13.6569 12 15 10.6569 15 9C15 7.34315 13.6569 6 12 6C10.3431 6 9 7.34315 9 9C9 10.6569 10.3431 12 12 12Z" fill="#C4C4C4"/>
</svg>
