<svg width="24" height="24" viewBox="0 0 24 24" fill="none" xmlns="http://www.w3.org/2000/svg">
<path d="M9.43 8.95C9.43 6.25 10.48 3.81 12.19 2C7.29 2.6 3.5 6.83 3.5 11.96C3.5 17.5 7.92 22 13.38 22C16.18 22 18.7 20.81 20.5 18.91C20.11 18.96 19.71 18.99 19.31 18.99C13.85 18.99 9.43 14.49 9.43 8.95Z" fill="#FFCE00"/>
<path d="M20.3601 12.65C20.1701 12.45 19.8501 12.45 19.6501 12.64L18.5001 13.77V7C18.5001 6.72 18.2801 6.5 18.0001 6.5C17.7201 6.5 17.5001 6.72 17.5001 7V13.83L16.3501 12.69C16.1501 12.5 15.8401 12.5 15.6401 12.69C15.4501 12.89 15.4501 13.2 15.6401 13.4L17.6101 15.35C17.7101 15.45 17.8401 15.5 17.9601 15.5C18.0901 15.5 18.2101 15.45 18.3101 15.36L20.3401 13.36C20.5501 13.16 20.5501 12.85 20.3601 12.65Z" fill="white"/>
</svg>
