<svg width="48" height="48" viewBox="0 0 48 48" fill="none" xmlns="http://www.w3.org/2000/svg">
<path d="M23.9999 4C21.6389 4.00154 19.3166 4.60017 17.249 5.74021C15.1815 6.88026 13.4358 8.52468 12.1744 10.5205C10.9131 12.5164 10.1769 14.7988 10.0345 17.1556C9.89212 19.5123 10.3481 21.8668 11.3599 24C11.8399 25.02 23.9199 44 23.9199 44C23.9199 44 36.0599 25.12 36.5399 24.16V24.04C37.5573 21.9128 38.0209 19.5631 37.8877 17.2089C37.7545 14.8547 37.0288 12.5722 35.778 10.5733C34.5272 8.57445 32.7918 6.92387 30.7328 5.77474C28.6738 4.6256 26.3579 4.01515 23.9999 4Z" fill="#4688EC"/>
<path d="M24 24C27.3137 24 30 21.3137 30 18C30 14.6863 27.3137 12 24 12C20.6863 12 18 14.6863 18 18C18 21.3137 20.6863 24 24 24Z" fill="white"/>
</svg>
