<svg width="24" height="24" viewBox="0 0 24 24" fill="none" xmlns="http://www.w3.org/2000/svg">
<path d="M12 3C15.31 3 18 5.69 18 9C18 9.89 17.8 10.76 17.41 11.58L17.39 11.62C17.17 12.03 14.23 16.62 11.97 20.14C9.72 16.61 6.8 11.99 6.59 11.58V11.57C6.2 10.75 6 9.89 6 9C6 5.69 8.69 3 12 3ZM12 2C8.13 2 5 5.13 5 9C5 10.08 5.25 11.09 5.68 12L5.69 12.01C5.93 12.51 11.97 22 11.97 22C11.97 22 18.05 12.56 18.28 12.08L18.32 12.02H18.31C18.75 11.1 19 10.08 19 9C19 5.13 15.87 2 12 2Z" fill="#DDDDDD"/>
<path d="M12 12C13.6569 12 15 10.6569 15 9C15 7.34315 13.6569 6 12 6C10.3431 6 9 7.34315 9 9C9 10.6569 10.3431 12 12 12Z" fill="#DDDDDD"/>
</svg>
