<svg width="24" height="24" viewBox="0 0 24 24" fill="none" xmlns="http://www.w3.org/2000/svg">
<path d="M21 20.2899L15.39 14.6699C16.5862 13.2872 17.1994 11.4944 17.1005 9.66874C17.0016 7.8431 16.1982 6.12702 14.8596 4.88168C13.521 3.63635 11.7515 2.95888 9.92344 2.99187C8.09541 3.02486 6.35147 3.76573 5.05865 5.05855C3.76583 6.35137 3.02496 8.09531 2.99197 9.92334C2.95898 11.7514 3.63645 13.5209 4.88178 14.8595C6.12712 16.1981 7.84319 17.0015 9.66884 17.1004C11.4945 17.1993 13.2873 16.5861 14.67 15.3899L20.29 20.9999L21 20.2899ZM4 10.0599C4 8.87321 4.35189 7.71317 5.01118 6.72648C5.67047 5.73978 6.60755 4.97075 7.7039 4.51662C8.80026 4.0625 10.0067 3.94368 11.1705 4.17519C12.3344 4.4067 13.4035 4.97814 14.2426 5.81726C15.0818 6.65637 15.6532 7.72547 15.8847 8.88936C16.1162 10.0532 15.9974 11.2596 15.5433 12.356C15.0891 13.4524 14.3201 14.3894 13.3334 15.0487C12.3467 15.708 11.1867 16.0599 10 16.0599C8.41274 16.0468 6.89419 15.4105 5.7718 14.2881C4.6494 13.1657 4.01306 11.6472 4 10.0599Z" fill="white"/>
</svg>
