<svg width="24" height="24" viewBox="0 0 24 24" fill="none" xmlns="http://www.w3.org/2000/svg">
<path d="M12 3C7.03 3 3 7.03 3 12C3 16.97 7.03 21 12 21C16.97 21 21 16.97 21 12C21 7.03 16.97 3 12 3ZM12.5 19.97V17.5H11.5V19.97C7.49 19.72 4.28 16.51 4.03 12.5H6.5V11.5H4.03C4.28 7.49 7.49 4.28 11.5 4.03V6.5H12.5V4.03C16.51 4.28 19.72 7.49 19.97 11.5H17.5V12.5H19.98C19.72 16.51 16.51 19.72 12.5 19.97Z" fill="white"/>
<path d="M12 15C13.6569 15 15 13.6569 15 12C15 10.3431 13.6569 9 12 9C10.3431 9 9 10.3431 9 12C9 13.6569 10.3431 15 12 15Z" fill="white"/>
</svg>
