<?xml version="1.0" encoding="UTF-8"?>
<svg xmlns="http://www.w3.org/2000/svg" xmlns:xlink="http://www.w3.org/1999/xlink" width="24px" height="24px" viewBox="0 0 24 24" version="1.1">
<g id="surface1">
<path style=" stroke:none;fill-rule:nonzero;fill:rgb(0%,0%,0%);fill-opacity:1;" d="M 2.007812 2.15625 C 1.054688 2.320312 0.285156 3.023438 0.0703125 3.941406 C -0.03125 4.390625 -0.03125 15.203125 0.0703125 15.652344 C 0.28125 16.542969 1.050781 17.273438 1.941406 17.433594 C 2.125 17.464844 3.261719 17.484375 5.140625 17.484375 L 8.0625 17.484375 L 8.0625 21.5625 L 8.199219 21.710938 C 8.476562 22.023438 8.316406 22.101562 12.148438 19.671875 L 15.601562 17.484375 L 18.6875 17.484375 C 20.691406 17.484375 21.875 17.464844 22.058594 17.433594 C 22.949219 17.273438 23.71875 16.542969 23.929688 15.652344 C 24.03125 15.203125 24.03125 4.390625 23.929688 3.941406 C 23.742188 3.144531 23.128906 2.492188 22.3125 2.21875 C 22.0625 2.136719 21.636719 2.132812 12.140625 2.128906 C 6.6875 2.125 2.128906 2.136719 2.007812 2.15625 Z M 22.175781 3.167969 C 22.476562 3.308594 22.761719 3.582031 22.914062 3.863281 L 23.039062 4.101562 L 23.039062 15.492188 L 22.914062 15.726562 C 22.753906 16.027344 22.492188 16.28125 22.195312 16.414062 L 21.960938 16.523438 L 18.632812 16.546875 C 16.242188 16.566406 15.277344 16.585938 15.210938 16.625 C 15.160156 16.65625 13.75 17.546875 12.070312 18.609375 L 9.023438 20.535156 L 9 18.695312 C 8.976562 16.789062 8.96875 16.703125 8.78125 16.613281 C 8.734375 16.589844 7.199219 16.5625 5.367188 16.546875 L 2.039062 16.523438 L 1.804688 16.414062 C 1.507812 16.28125 1.246094 16.027344 1.085938 15.726562 L 0.960938 15.492188 L 0.960938 4.101562 L 1.085938 3.863281 C 1.285156 3.488281 1.65625 3.191406 2.046875 3.097656 C 2.152344 3.074219 6.40625 3.0625 12.09375 3.0625 L 21.960938 3.070312 Z M 22.175781 3.167969 "/>
</g>
</svg>
