<svg width="24" height="24" viewBox="0 0 24 24" fill="none" xmlns="http://www.w3.org/2000/svg">
<path d="M16.6943 3.00006C16.0005 3.00196 15.3142 3.14372 14.6762 3.41688C14.0382 3.69004 13.4617 4.08902 12.9808 4.59006L11.9826 5.59006L10.9843 4.59006C10.5027 4.08734 9.92453 3.68734 9.28467 3.4141C8.6448 3.14085 7.9564 3 7.26082 3C6.56524 3 5.87684 3.14085 5.23698 3.4141C4.59711 3.68734 4.01899 4.08734 3.53734 4.59006C2.54304 5.62425 1.98755 7.00421 1.98755 8.44005C1.98755 9.8759 2.54304 11.2559 3.53734 12.2901L4.53559 13.2901L11.9826 21.0001L19.4395 13.3001L20.4378 12.3001C21.4321 11.2659 21.9875 9.8859 21.9875 8.45006C21.9875 7.01421 21.4321 5.63425 20.4378 4.60006C19.9543 4.09357 19.3732 3.69062 18.7298 3.4156C18.0863 3.14058 17.3939 2.99922 16.6943 3.00006Z" fill="#CE3030"/>
</svg>
