<svg width="24" height="24" viewBox="0 0 24 24" fill="none" xmlns="http://www.w3.org/2000/svg">
<path d="M16.6943 3.99885C17.2543 4.0021 17.8079 4.11783 18.3223 4.33918C18.8367 4.56052 19.3015 4.88298 19.6891 5.28742C20.4959 6.13605 20.9459 7.26258 20.9459 8.43392C20.9459 9.60526 20.4959 10.7318 19.6891 11.5804L18.6908 12.5793L11.9526 19.5715L5.2144 12.5793L4.21615 11.5804C3.40928 10.7318 2.9593 9.60526 2.9593 8.43392C2.9593 7.26258 3.40928 6.13605 4.21615 5.28742C4.60511 4.88627 5.0706 4.56735 5.58503 4.34957C6.09945 4.13178 6.65234 4.01956 7.21091 4.01956C7.76948 4.01956 8.32237 4.13178 8.83679 4.34957C9.35122 4.56735 9.81671 4.88627 10.2057 5.28742L11.2039 6.28631L11.9826 6.99552L12.7013 6.26633L13.6996 5.26744C14.0871 4.863 14.5519 4.54054 15.0663 4.3192C15.5807 4.09785 16.1343 3.98212 16.6943 3.97887V3.99885ZM16.6943 2.97998C15.9991 2.98447 15.3119 3.12921 14.6738 3.40553C14.0358 3.68185 13.46 4.08409 12.9808 4.58819L11.9826 5.58708L10.9843 4.58819C10.5027 4.08603 9.92453 3.68648 9.28467 3.41354C8.6448 3.1406 7.9564 2.9999 7.26082 2.9999C6.56524 2.9999 5.87684 3.1406 5.23698 3.41354C4.59711 3.68648 4.01899 4.08603 3.53734 4.58819V4.58819C2.54304 5.62124 1.98755 6.99967 1.98755 8.43392C1.98755 9.86817 2.54304 11.2466 3.53734 12.2796L4.53559 13.2785L11.9826 20.98L19.4395 13.2885L20.4378 12.2896C21.4321 11.2566 21.9875 9.87816 21.9875 8.44391C21.9875 7.00966 21.4321 5.63123 20.4378 4.59818V4.59818C19.9543 4.09226 19.3732 3.68975 18.7298 3.41504C18.0863 3.14033 17.3939 2.99912 16.6943 2.99996V2.97998Z" fill="#CCCCCC"/>
</svg>
