<?xml version="1.0" encoding="utf-8"?>
<!-- Generator: Adobe Illustrator 25.4.1, SVG Export Plug-In . SVG Version: 6.00 Build 0)  -->
<svg version="1.1" id="레이어_1" xmlns="http://www.w3.org/2000/svg" xmlns:xlink="http://www.w3.org/1999/xlink" x="0px"
	 y="0px" viewBox="0 0 720 720" style="enable-background:new 0 0 720 720;" xml:space="preserve">
<style type="text/css">
	.st0{fill:#FFFFFF;}
	.st1{fill:none;stroke:#FFFFFF;stroke-width:3.1601;stroke-linecap:round;stroke-miterlimit:10;}
</style>
<path class="st0" d="M450.8,576.1c-149,0-269.8-120.8-269.8-269.8S301.8,36.5,450.8,36.5c37,0,72.2,7.4,104.3,20.9
	c-56-36-122.7-56.9-194.2-56.9C162.2,0.5,1.1,161.6,1.1,360.2S162.2,720,360.9,720s359.8-161.1,359.8-359.8c0-9.8-0.4-19.4-1.2-29
	C706.9,468.5,591.4,576.1,450.8,576.1z"/>
<g>
	<path class="st0" d="M595.2,450.9v-31.2h-5V445L461.9,251.1l24.2-33.8l-4.1-2.9l-23.7,33.2l-21.3-33.1l-4.2,2.7l21.7,33.8
		L327.4,442.7v-26h-5v33h0.4l0,0.1H220.5v2.8h105.4l47.1,33.6h169.2l52.4-32.7h105.6v-2.5L595.2,450.9L595.2,450.9z M377.4,481.2
		l80.9-215.7l79.6,215.7H377.4z"/>
	<rect x="279.8" y="515.9" class="st0" width="54.9" height="5"/>
	<rect x="245.9" y="481.2" class="st0" width="54.9" height="5"/>
	<rect x="602.3" y="481.2" class="st0" width="54.9" height="5"/>
	<rect x="346.7" y="554.1" class="st0" width="54.9" height="5"/>
	<rect x="389.6" y="515.9" class="st0" width="54.9" height="5"/>
	<rect x="451.5" y="554.1" class="st0" width="54.9" height="5"/>
	<rect x="551.4" y="554.1" class="st0" width="54.9" height="5"/>
	<rect x="499.5" y="515.9" class="st0" width="54.9" height="5"/>
	<rect x="609.3" y="515.9" class="st0" width="54.9" height="5"/>
</g>
<g>
	<line class="st1" x1="274.9" y1="180.4" x2="284.9" y2="180.4"/>
	<line class="st1" x1="279.9" y1="187.9" x2="279.9" y2="172.9"/>
</g>
<g>
	<line class="st1" x1="259.9" y1="271.3" x2="269.9" y2="271.3"/>
	<line class="st1" x1="264.9" y1="278.8" x2="264.9" y2="263.8"/>
</g>
<g>
	<line class="st1" x1="350.9" y1="221.3" x2="360.9" y2="221.3"/>
	<line class="st1" x1="355.9" y1="228.8" x2="355.9" y2="213.8"/>
</g>
<g>
	<line class="st1" x1="385.8" y1="118.4" x2="395.8" y2="118.4"/>
	<line class="st1" x1="390.8" y1="125.9" x2="390.8" y2="110.9"/>
</g>
<g>
	<line class="st1" x1="466.8" y1="163.4" x2="476.8" y2="163.4"/>
	<line class="st1" x1="471.8" y1="170.9" x2="471.8" y2="155.9"/>
</g>
<g>
	<line class="st1" x1="556.7" y1="214.3" x2="566.7" y2="214.3"/>
	<line class="st1" x1="561.7" y1="221.8" x2="561.7" y2="206.9"/>
</g>
<g>
	<line class="st1" x1="523.8" y1="93.4" x2="533.7" y2="93.4"/>
	<line class="st1" x1="528.8" y1="100.9" x2="528.8" y2="85.9"/>
</g>
</svg>
