<svg width="24" height="24" viewBox="0 0 24 24" fill="none" xmlns="http://www.w3.org/2000/svg">
<path d="M9.43 8.95C9.43 6.25 10.48 3.81 12.19 2C7.29 2.6 3.5 6.83 3.5 11.96C3.5 17.5 7.92 22 13.38 22C16.18 22 18.7 20.81 20.5 18.91C20.11 18.96 19.71 18.99 19.31 18.99C13.85 18.99 9.43 14.49 9.43 8.95Z" fill="#FFCE00"/>
<path d="M18.3601 9.35C18.1701 9.55 17.8501 9.55 17.6501 9.36L16.5001 8.23V15C16.5001 15.28 16.2801 15.5 16.0001 15.5C15.7201 15.5 15.5001 15.28 15.5001 15V8.17L14.3501 9.31C14.1501 9.5 13.8401 9.5 13.6401 9.31C13.4501 9.11 13.4501 8.8 13.6401 8.6L15.6101 6.65C15.7101 6.55 15.8401 6.5 15.9601 6.5C16.0901 6.5 16.2101 6.55 16.3101 6.64L18.3401 8.64C18.5501 8.84 18.5501 9.15 18.3601 9.35Z" fill="white"/>
</svg>
