<svg width="24" height="24" viewBox="0 0 24 24" fill="none" xmlns="http://www.w3.org/2000/svg">
<path d="M20.9999 20.29L15.3899 14.67C16.5861 13.2873 17.1993 11.4945 17.1004 9.66883C17.0015 7.84319 16.1981 6.12711 14.8595 4.88177C13.5209 3.63644 11.7514 2.95898 9.92334 2.99196C8.09531 3.02495 6.35137 3.76582 5.05855 5.05864C3.76573 6.35146 3.02486 8.0954 2.99187 9.92343C2.95888 11.7515 3.63635 13.521 4.88168 14.8596C6.12702 16.1982 7.84309 17.0015 9.66874 17.1005C11.4944 17.1994 13.2872 16.5862 14.6699 15.39L20.2899 21L20.9999 20.29ZM3.9999 10.06C3.9999 8.8733 4.3518 7.71326 5.01108 6.72657C5.67037 5.73987 6.60745 4.97084 7.7038 4.51671C8.80016 4.06259 10.0066 3.94377 11.1704 4.17528C12.3343 4.40679 13.4034 4.97824 14.2425 5.81735C15.0817 6.65647 15.6531 7.72556 15.8846 8.88945C16.1161 10.0533 15.9973 11.2597 15.5432 12.3561C15.089 13.4524 14.32 14.3895 13.3333 15.0488C12.3466 15.7081 11.1866 16.06 9.9999 16.06C8.41264 16.0469 6.8941 15.4106 5.7717 14.2882C4.6493 13.1658 4.01296 11.6473 3.9999 10.06Z" fill="#EEEEEE"/>
</svg>
