<svg width="24" height="24" viewBox="0 0 24 24" fill="none" xmlns="http://www.w3.org/2000/svg">
<mask id="path-1-inside-1_1224_1061" fill="white">
<path fill-rule="evenodd" clip-rule="evenodd" d="M8 6C5.23858 6 3 8.23858 3 11V12.7964C3 14.0852 3.48762 15.2601 4.28843 16.1467L3.02704 18.9999L6.84297 17.6618C7.21434 17.7498 7.60173 17.7964 8 17.7964H15.6946C18.456 17.7964 20.6946 15.5578 20.6946 12.7964V11C20.6946 8.23858 18.456 6 15.6946 6H8Z"/>
</mask>
<path d="M4.28843 16.1467L5.20304 16.5511L5.46531 15.9578L5.03053 15.4764L4.28843 16.1467ZM3.02704 18.9999L2.11243 18.5956L1.17865 20.7078L3.35795 19.9436L3.02704 18.9999ZM6.84297 17.6618L7.0735 16.6888L6.78847 16.6213L6.51206 16.7182L6.84297 17.6618ZM4 11C4 8.79086 5.79086 7 8 7V5C4.68629 5 2 7.68629 2 11H4ZM4 12.7964V11H2V12.7964H4ZM5.03053 15.4764C4.38924 14.7664 4 13.828 4 12.7964H2C2 14.3423 2.58599 15.7538 3.54633 16.817L5.03053 15.4764ZM3.94165 19.4043L5.20304 16.5511L3.37382 15.7424L2.11243 18.5956L3.94165 19.4043ZM6.51206 16.7182L2.69613 18.0563L3.35795 19.9436L7.17387 18.6055L6.51206 16.7182ZM8 16.7964C7.67993 16.7964 7.36989 16.759 7.0735 16.6888L6.61243 18.6349C7.05879 18.7407 7.52354 18.7964 8 18.7964V16.7964ZM15.6946 16.7964H8V18.7964H15.6946V16.7964ZM19.6946 12.7964C19.6946 15.0055 17.9037 16.7964 15.6946 16.7964V18.7964C19.0083 18.7964 21.6946 16.1101 21.6946 12.7964H19.6946ZM19.6946 11V12.7964H21.6946V11H19.6946ZM15.6946 7C17.9037 7 19.6946 8.79086 19.6946 11H21.6946C21.6946 7.68629 19.0083 5 15.6946 5V7ZM8 7H15.6946V5H8V7Z" fill="#C4C4C4" mask="url(#path-1-inside-1_1224_1061)"/>
</svg>
