<svg width="96" height="96" viewBox="0 0 96 96" fill="none" xmlns="http://www.w3.org/2000/svg">
<path d="M46 36C45.5577 32.6532 43.9142 29.5812 41.3755 27.3559C38.8368 25.1306 35.5759 23.9038 32.2 23.9038C28.8241 23.9038 25.5632 25.1306 23.0245 27.3559C20.4858 29.5812 18.8423 32.6532 18.4 36H18C15.3478 36 12.8043 37.0535 10.9289 38.9289C9.05357 40.8043 8 43.3478 8 46C8 48.6521 9.05357 51.1957 10.9289 53.071C12.8043 54.9464 15.3478 56 18 56H46C48.6522 56 51.1957 54.9464 53.0711 53.071C54.9464 51.1957 56 48.6521 56 46C56 43.3478 54.9464 40.8043 53.0711 38.9289C51.1957 37.0535 48.6522 36 46 36Z" fill="#EEEEEE"/>
<path d="M68.96 19.04C64.4104 14.8006 58.3929 12.4927 52.1752 12.6024C45.9576 12.7121 40.0253 15.2309 35.6281 19.6281C31.2309 24.0253 28.7121 29.9576 28.6024 36.1752C28.4927 42.3929 30.8006 48.4104 35.04 52.96C37.2372 55.3179 39.8868 57.2092 42.8308 58.521C45.7747 59.8327 48.9528 60.538 52.1752 60.5949C55.3977 60.6518 58.5987 60.059 61.5871 58.8519C64.5755 57.6448 67.2902 55.8482 69.5692 53.5692C71.8482 51.2902 73.6448 48.5755 74.8519 45.5871C76.059 42.5987 76.6518 39.3977 76.5949 36.1752C76.538 32.9528 75.8327 29.7747 74.521 26.8308C73.2092 23.8868 71.318 21.2372 68.96 19.04Z" fill="#FFCE00"/>
<path d="M64 36C59.0416 36.0057 54.2067 37.5469 50.1598 40.412C46.1129 43.277 43.0528 47.3252 41.4 52H40C35.7565 52 31.6869 53.6857 28.6863 56.6863C25.6857 59.6869 24 63.7565 24 68C24 72.2435 25.6857 76.3131 28.6863 79.3137C31.6869 82.3143 35.7565 84 40 84H64C70.3652 84 76.4697 81.4714 80.9706 76.9706C85.4714 72.4697 88 66.3652 88 60C88 53.6348 85.4714 47.5303 80.9706 43.0294C76.4697 38.5286 70.3652 36 64 36Z" fill="white"/>
</svg>
