<svg width="48" height="48" viewBox="0 0 48 48" fill="none" xmlns="http://www.w3.org/2000/svg">
<path d="M24 6C33.92 6 42 14.08 42 24C42 33.92 33.92 42 24 42C14.08 42 6 33.92 6 24C6 14.08 14.08 6 24 6ZM24 4C12.96 4 4 12.96 4 24C4 35.04 12.96 44 24 44C35.04 44 44 35.04 44 24C44 12.96 35.04 4 24 4Z" fill="#D0B026"/>
<path d="M16 18C14.9 18 14 18.9 14 20C14 21.1 14.9 22 16 22C17.1 22 18 21.1 18 20C18 18.9 17.1 18 16 18Z" fill="#D0B026"/>
<path d="M32 18C30.9 18 30 18.9 30 20C30 21.1 30.9 22 32 22C33.1 22 34 21.1 34 20C34 18.9 33.1 18 32 18Z" fill="#D0B026"/>
<path d="M31 33H17C16.44 33 16 32.56 16 32C16 31.44 16.44 31 17 31H31C31.56 31 32 31.44 32 32C32 32.56 31.56 33 31 33Z" fill="#D0B026"/>
</svg>
