<svg width="96" height="96" viewBox="0 0 96 96" fill="none" xmlns="http://www.w3.org/2000/svg">
<path d="M72 28H70.6C68.9344 23.3396 65.8688 19.3081 61.823 16.4576C57.7772 13.6072 52.9491 12.0771 48 12.0771C43.0509 12.0771 38.2228 13.6072 34.177 16.4576C30.1312 19.3081 27.0656 23.3396 25.4 28H24C19.7565 28 15.6869 29.6857 12.6863 32.6863C9.68571 35.6869 8 39.7566 8 44C8 48.2435 9.68571 52.3131 12.6863 55.3137C15.6869 58.3143 19.7565 60 24 60H72C76.2435 60 80.3131 58.3143 83.3137 55.3137C86.3143 52.3131 88 48.2435 88 44C88 39.7566 86.3143 35.6869 83.3137 32.6863C80.3131 29.6857 76.2435 28 72 28Z" fill="#EEEEEE"/>
<path d="M26 66C24.8954 66 24 66.8954 24 68C24 69.1046 24.8954 70 26 70H70C71.1046 70 72 69.1046 72 68C72 66.8954 71.1046 66 70 66H26Z" fill="#CCCCCC"/>
<path d="M30 76C28.8954 76 28 76.8954 28 78C28 79.1046 28.8954 80 30 80H66C67.1046 80 68 79.1046 68 78C68 76.8954 67.1046 76 66 76H30Z" fill="#CCCCCC"/>
</svg>
