<svg width="48" height="48" viewBox="0 0 48 48" fill="none" xmlns="http://www.w3.org/2000/svg">
<path d="M24 6C33.92 6 42 14.08 42 24C42 33.92 33.92 42 24 42C14.08 42 6 33.92 6 24C6 14.08 14.08 6 24 6ZM24 4C12.96 4 4 12.96 4 24C4 35.04 12.96 44 24 44C35.04 44 44 35.04 44 24C44 12.96 35.04 4 24 4Z" fill="#CE3030"/>
<path d="M16 18C14.9 18 14 18.9 14 20C14 21.1 14.9 22 16 22C17.1 22 18 21.1 18 20C18 18.9 17.1 18 16 18Z" fill="#CE3030"/>
<path d="M32 18C30.9 18 30 18.9 30 20C30 21.1 30.9 22 32 22C33.1 22 34 21.1 34 20C34 18.9 33.1 18 32 18Z" fill="#CE3030"/>
<path d="M16 33C15.8 33 15.58 32.94 15.4 32.8C14.96 32.46 14.88 31.84 15.2 31.4C15.34 31.22 18.56 27 24 27C29.44 27 32.66 31.22 32.8 31.4C33.14 31.84 33.04 32.46 32.6 32.8C32.16 33.14 31.54 33.04 31.2 32.6C31.18 32.56 28.42 29 24 29C19.58 29 16.82 32.56 16.8 32.6C16.6 32.86 16.3 33 16 33Z" fill="#CE3030"/>
</svg>
