<svg width="48" height="48" viewBox="0 0 48 48" fill="none" xmlns="http://www.w3.org/2000/svg">
<path d="M24 6.88L33.88 17.1C39.38 22.8 39.38 32.06 33.88 37.76C31.24 40.5 27.72 42 24 42C20.28 42 16.76 40.5 14.12 37.76C8.62 32.06 8.62 22.8 14.12 17.1L24 6.88ZM24 4L12.68 15.72C6.44 22.18 6.44 32.7 12.68 39.16C15.7 42.28 19.72 44 24 44C28.28 44 32.3 42.28 35.32 39.14C41.56 32.68 41.56 22.16 35.32 15.7L24 4Z" fill="#DDDDDD"/>
<path d="M16 34C17.1046 34 18 33.1046 18 32C18 30.8954 17.1046 30 16 30C14.8954 30 14 30.8954 14 32C14 33.1046 14.8954 34 16 34Z" fill="#DDDDDD"/>
</svg>
