<svg width="96" height="96" viewBox="0 0 96 96" fill="none" xmlns="http://www.w3.org/2000/svg">
<path d="M72 32H70.6C68.9344 27.3396 65.8688 23.3081 61.823 20.4576C57.7772 17.6072 52.9491 16.0771 48 16.0771C43.0509 16.0771 38.2228 17.6072 34.177 20.4576C30.1312 23.3081 27.0656 27.3396 25.4 32H24C19.7565 32 15.6869 33.6857 12.6863 36.6863C9.6857 39.6869 8 43.7566 8 48C8 52.2435 9.6857 56.3131 12.6863 59.3137C15.6869 62.3143 19.7565 64 24 64H72C76.2435 64 80.3131 62.3143 83.3137 59.3137C86.3143 56.3131 88 52.2435 88 48C88 43.7566 86.3143 39.6869 83.3137 36.6863C80.3131 33.6857 76.2435 32 72 32Z" fill="#EEEEEE"/>
<path d="M77.9999 60C77.5576 56.6532 75.9141 53.5811 73.3754 51.3559C70.8367 49.1306 67.5758 47.9038 64.1999 47.9038C60.824 47.9038 57.5631 49.1306 55.0244 51.3559C52.4857 53.5811 50.8422 56.6532 50.3999 60C47.7477 60 45.2042 61.0535 43.3288 62.9289C41.4535 64.8043 40.3999 67.3478 40.3999 70C40.3999 72.6521 41.4535 75.1957 43.3288 77.071C45.2042 78.9464 47.7477 80 50.3999 80H78.3999C81.0521 80 83.5956 78.9464 85.471 77.071C87.3463 75.1957 88.3999 72.6521 88.3999 70C88.3999 67.3478 87.3463 64.8043 85.471 62.9289C83.5956 61.0535 81.0521 60 78.3999 60H77.9999Z" fill="white"/>
</svg>
