<svg width="96" height="96" viewBox="0 0 96 96" fill="none" xmlns="http://www.w3.org/2000/svg">
<path d="M60 24.2001C56.0728 20.3129 51.0832 17.6746 45.6596 16.6174C40.236 15.5602 34.6209 16.1313 29.5212 18.259C24.4216 20.3866 20.0655 23.9756 17.0015 28.5739C13.9374 33.1723 12.3025 38.5744 12.3025 44.1001C12.3025 49.6258 13.9374 55.0279 17.0015 59.6263C20.0655 64.2247 24.4216 67.8136 29.5212 69.9412C34.6209 72.0689 40.236 72.6401 45.6596 71.5829C51.0832 70.5256 56.0728 67.8873 60 64.0001C62.6304 61.3964 64.7185 58.2971 66.1436 54.8814C67.5687 51.4656 68.3025 47.8012 68.3025 44.1001C68.3025 40.399 67.5687 36.7346 66.1436 33.3189C64.7185 29.9031 62.6304 26.8038 60 24.2001Z" fill="#FFCE00"/>
<path d="M73.9999 60.0002C73.5576 56.6534 71.9141 53.5814 69.3754 51.3561C66.8367 49.1309 63.5758 47.9041 60.1999 47.9041C56.824 47.9041 53.5631 49.1309 51.0244 51.3561C48.4857 53.5814 46.8422 56.6534 46.3999 60.0002C43.7477 60.0002 41.2042 61.0538 39.3288 62.9291C37.4535 64.8045 36.3999 67.348 36.3999 70.0002C36.3999 72.6524 37.4535 75.1959 39.3288 77.0713C41.2042 78.9466 43.7477 80.0002 46.3999 80.0002H74.3999C77.0521 80.0002 79.5956 78.9466 81.471 77.0713C83.3463 75.1959 84.3999 72.6524 84.3999 70.0002C84.3999 67.348 83.3463 64.8045 81.471 62.9291C79.5956 61.0538 77.0521 60.0002 74.3999 60.0002H73.9999Z" fill="white"/>
</svg>
