<svg width="96" height="96" viewBox="0 0 96 96" fill="none" xmlns="http://www.w3.org/2000/svg">
<path d="M72 24H70.6C68.9344 19.3396 65.8688 15.3081 61.823 12.4576C57.7772 9.60716 52.9491 8.07715 48 8.07715C43.0509 8.07715 38.2228 9.60716 34.177 12.4576C30.1312 15.3081 27.0656 19.3396 25.4 24H24C19.7565 24 15.6869 25.6857 12.6863 28.6863C9.6857 31.6869 8 35.7566 8 40C8 44.2435 9.6857 48.3131 12.6863 51.3137C15.6869 54.3143 19.7565 56 24 56H72C76.2435 56 80.3131 54.3143 83.3137 51.3137C86.3143 48.3131 88 44.2435 88 40C88 35.7566 86.3143 31.6869 83.3137 28.6863C80.3131 25.6857 76.2435 24 72 24Z" fill="#EEEEEE"/>
<path d="M28 54C28 52.8954 27.1046 52 26 52C24.8954 52 24 52.8954 24 54V74C24 75.1046 24.8954 76 26 76C27.1046 76 28 75.1046 28 74V54Z" fill="#4688EC"/>
<path d="M28 80C28 78.8954 27.1046 78 26 78C24.8954 78 24 78.8954 24 80C24 81.1046 24.8954 82 26 82C27.1046 82 28 81.1046 28 80Z" fill="#4688EC"/>
<path d="M48 54C48 55.1046 48.8954 56 50 56C51.1046 56 52 55.1046 52 54C52 52.8954 51.1046 52 50 52C48.8954 52 48 52.8954 48 54Z" fill="#4688EC"/>
<path d="M76 80C76 78.8954 75.1046 78 74 78C72.8954 78 72 78.8954 72 80C72 81.1046 72.8954 82 74 82C75.1046 82 76 81.1046 76 80Z" fill="#4688EC"/>
<path d="M40 60C40 58.8954 39.1046 58 38 58C36.8954 58 36 58.8954 36 60V76C36 77.1046 36.8954 78 38 78C39.1046 78 40 77.1046 40 76V60Z" fill="#4688EC"/>
<path d="M48 80C48 81.1046 48.8954 82 50 82C51.1046 82 52 81.1046 52 80V60C52 58.8954 51.1046 58 50 58C48.8954 58 48 58.8954 48 60V80Z" fill="#4688EC"/>
<path d="M76 54C76 52.8954 75.1046 52 74 52C72.8954 52 72 52.8954 72 54V74C72 75.1046 72.8954 76 74 76C75.1046 76 76 75.1046 76 74V54Z" fill="#4688EC"/>
<path d="M64 60C64 58.8954 63.1046 58 62 58C60.8954 58 60 58.8954 60 60V76C60 77.1046 60.8954 78 62 78C63.1046 78 64 77.1046 64 76V60Z" fill="#4688EC"/>
</svg>
