<svg width="96" height="96" viewBox="0 0 96 96" fill="none" xmlns="http://www.w3.org/2000/svg">
<path opacity="0.3" d="M76.28 19.72C68.72 12.16 58.68 8 48 8C37.32 8 27.28 12.16 19.72 19.72C4.12002 35.32 4.12002 60.68 19.72 76.28C27.28 83.84 37.32 88 48 88C58.68 88 68.72 83.84 76.28 76.28C91.92 60.68 91.92 35.32 76.28 19.72Z" fill="#FFCE00"/>
<path d="M64.96 31.04C60.44 26.48 54.4 24 48 24C41.6 24 35.56 26.48 31.04 31.04C21.68 40.4 21.68 55.64 31.04 65C35.56 69.52 41.6 72 48 72C54.4 72 60.44 69.52 64.96 64.96C74.36 55.6 74.36 40.4 64.96 31.04Z" fill="#FFCE00"/>
</svg>
