<svg width="96" height="96" viewBox="0 0 96 96" fill="none" xmlns="http://www.w3.org/2000/svg">
<path d="M86 46H81.16L83.4 43.76C83.5874 43.5741 83.7362 43.3529 83.8378 43.1091C83.9393 42.8654 83.9916 42.604 83.9916 42.34C83.9916 42.076 83.9393 41.8146 83.8378 41.5708C83.7362 41.3271 83.5874 41.1059 83.4 40.92C83.0261 40.5535 82.5235 40.3483 82 40.3483C81.4765 40.3483 80.9739 40.5535 80.6 40.92L75.52 46H52.84L68.84 30H76C76.5304 30 77.0391 29.7893 77.4142 29.4142C77.7893 29.0391 78 28.5304 78 28C78 27.4696 77.7893 26.9609 77.4142 26.5858C77.0391 26.2107 76.5304 26 76 26H72.84L76.24 22.6C76.4265 22.4135 76.5744 22.1921 76.6753 21.9485C76.7762 21.7049 76.8282 21.4437 76.8282 21.18C76.8282 20.9163 76.7762 20.6551 76.6753 20.4115C76.5744 20.1679 76.4265 19.9465 76.24 19.76C76.0535 19.5735 75.8321 19.4256 75.5885 19.3247C75.3449 19.2238 75.0837 19.1718 74.82 19.1718C74.5563 19.1718 74.2952 19.2238 74.0515 19.3247C73.8079 19.4256 73.5865 19.5735 73.4 19.76L70 23.16V20C70 19.4696 69.7893 18.9609 69.4142 18.5858C69.0391 18.2107 68.5304 18 68 18C67.4696 18 66.9609 18.2107 66.5858 18.5858C66.2107 18.9609 66 19.4696 66 20V27.16L50 43.16V20.48L55.08 15.4C55.4464 15.0261 55.6517 14.5235 55.6517 14C55.6517 13.4765 55.4464 12.9739 55.08 12.6C54.8941 12.4125 54.6729 12.2638 54.4291 12.1622C54.1854 12.0607 53.924 12.0084 53.66 12.0084C53.396 12.0084 53.1346 12.0607 52.8908 12.1622C52.6471 12.2638 52.4259 12.4125 52.24 12.6L50 14.84V10C50 9.46957 49.7893 8.96086 49.4142 8.58578C49.0391 8.21071 48.5304 8 48 8C47.4696 8 46.9609 8.21071 46.5858 8.58578C46.2107 8.96086 46 9.46957 46 10V14.84L43.76 12.6C43.5741 12.4125 43.3529 12.2638 43.1091 12.1622C42.8654 12.0607 42.604 12.0084 42.34 12.0084C42.076 12.0084 41.8146 12.0607 41.5708 12.1622C41.3271 12.2638 41.1059 12.4125 40.92 12.6C40.5535 12.9739 40.3483 13.4765 40.3483 14C40.3483 14.5235 40.5535 15.0261 40.92 15.4L46 20.48V43.16L30 27.16V20C30 19.4696 29.7893 18.9609 29.4142 18.5858C29.0391 18.2107 28.5304 18 28 18C27.4696 18 26.9609 18.2107 26.5858 18.5858C26.2107 18.9609 26 19.4696 26 20V23.16L22.6 19.76C22.2234 19.3834 21.7126 19.1718 21.18 19.1718C20.6474 19.1718 20.1366 19.3834 19.76 19.76C19.3834 20.1366 19.1718 20.6474 19.1718 21.18C19.1718 21.7126 19.3834 22.2234 19.76 22.6L23.16 26H20C19.4696 26 18.9609 26.2107 18.5858 26.5858C18.2107 26.9609 18 27.4696 18 28C18 28.5304 18.2107 29.0391 18.5858 29.4142C18.9609 29.7893 19.4696 30 20 30H27.16L43.16 46H20.48L15.4 40.92C15.0261 40.5535 14.5235 40.3483 14 40.3483C13.4765 40.3483 12.9739 40.5535 12.6 40.92C12.4125 41.1059 12.2638 41.3271 12.1622 41.5708C12.0607 41.8146 12.0084 42.076 12.0084 42.34C12.0084 42.604 12.0607 42.8654 12.1622 43.1091C12.2638 43.3529 12.4125 43.5741 12.6 43.76L14.84 46H10C9.46957 46 8.96086 46.2107 8.58578 46.5858C8.21071 46.9609 8 47.4696 8 48C8 48.5304 8.21071 49.0391 8.58578 49.4142C8.96086 49.7893 9.46957 50 10 50H14.84L12.6 52.24C12.4125 52.4259 12.2638 52.6471 12.1622 52.8909C12.0607 53.1346 12.0084 53.396 12.0084 53.66C12.0084 53.924 12.0607 54.1854 12.1622 54.4292C12.2638 54.6729 12.4125 54.8941 12.6 55.08C12.9739 55.4465 13.4765 55.6517 14 55.6517C14.5235 55.6517 15.0261 55.4465 15.4 55.08L20.48 50H43.16L27.16 66H20C19.4696 66 18.9609 66.2107 18.5858 66.5858C18.2107 66.9609 18 67.4696 18 68C18 68.5304 18.2107 69.0391 18.5858 69.4142C18.9609 69.7893 19.4696 70 20 70H23.16L19.76 73.4C19.5735 73.5865 19.4256 73.8079 19.3247 74.0515C19.2238 74.2951 19.1718 74.5563 19.1718 74.82C19.1718 75.0837 19.2238 75.3449 19.3247 75.5885C19.4256 75.8321 19.5735 76.0535 19.76 76.24C19.9465 76.4265 20.1679 76.5744 20.4115 76.6753C20.6551 76.7762 20.9163 76.8282 21.18 76.8282C21.4437 76.8282 21.7049 76.7762 21.9485 76.6753C22.1921 76.5744 22.4135 76.4265 22.6 76.24L26 72.84V76C26 76.5304 26.2107 77.0391 26.5858 77.4142C26.9609 77.7893 27.4696 78 28 78C28.5304 78 29.0391 77.7893 29.4142 77.4142C29.7893 77.0391 30 76.5304 30 76V68.88L46 52.88V75.56L40.92 80.64C40.5535 81.0139 40.3483 81.5165 40.3483 82.04C40.3483 82.5635 40.5535 83.0661 40.92 83.44C41.1059 83.6275 41.3271 83.7762 41.5708 83.8778C41.8146 83.9793 42.076 84.0316 42.34 84.0316C42.604 84.0316 42.8654 83.9793 43.1091 83.8778C43.3529 83.7762 43.5741 83.6275 43.76 83.44L46 81.2V86C46 86.5304 46.2107 87.0391 46.5858 87.4142C46.9609 87.7893 47.4696 88 48 88C48.5304 88 49.0391 87.7893 49.4142 87.4142C49.7893 87.0391 50 86.5304 50 86V81.16L52.24 83.4C52.4259 83.5874 52.6471 83.7362 52.8908 83.8378C53.1346 83.9393 53.396 83.9916 53.66 83.9916C53.924 83.9916 54.1854 83.9393 54.4291 83.8378C54.6729 83.7362 54.8941 83.5874 55.08 83.4C55.4464 83.0261 55.6517 82.5235 55.6517 82C55.6517 81.4765 55.4464 80.9739 55.08 80.6L50 75.52V52.84L66 68.84V76C66 76.5304 66.2107 77.0391 66.5858 77.4142C66.9609 77.7893 67.4696 78 68 78C68.5304 78 69.0391 77.7893 69.4142 77.4142C69.7893 77.0391 70 76.5304 70 76V72.84L73.4 76.24C73.5865 76.4265 73.8079 76.5744 74.0515 76.6753C74.2952 76.7762 74.5563 76.8282 74.82 76.8282C75.0837 76.8282 75.3449 76.7762 75.5885 76.6753C75.8321 76.5744 76.0535 76.4265 76.24 76.24C76.4265 76.0535 76.5744 75.8321 76.6753 75.5885C76.7762 75.3449 76.8282 75.0837 76.8282 74.82C76.8282 74.5563 76.7762 74.2951 76.6753 74.0515C76.5744 73.8079 76.4265 73.5865 76.24 73.4L72.84 70H76C76.5304 70 77.0391 69.7893 77.4142 69.4142C77.7893 69.0391 78 68.5304 78 68C78 67.4696 77.7893 66.9609 77.4142 66.5858C77.0391 66.2107 76.5304 66 76 66H68.88L52.88 50H75.56L80.64 55.08C81.0139 55.4465 81.5165 55.6517 82.04 55.6517C82.5635 55.6517 83.0661 55.4465 83.44 55.08C83.6275 54.8941 83.7762 54.6729 83.8778 54.4292C83.9793 54.1854 84.0316 53.924 84.0316 53.66C84.0316 53.396 83.9793 53.1346 83.8778 52.8909C83.7762 52.6471 83.6275 52.4259 83.44 52.24L81.2 50H86C86.5304 50 87.0391 49.7893 87.4142 49.4142C87.7893 49.0391 88 48.5304 88 48C88 47.4696 87.7893 46.9609 87.4142 46.5858C87.0391 46.2107 86.5304 46 86 46Z" fill="white"/>
</svg>
