<svg width="96" height="96" viewBox="0 0 96 96" fill="none" xmlns="http://www.w3.org/2000/svg">
<path d="M72 24H70.6C68.9344 19.3396 65.8688 15.3081 61.823 12.4576C57.7772 9.60717 52.9491 8.07715 48 8.07715C43.0509 8.07715 38.2228 9.60717 34.177 12.4576C30.1312 15.3081 27.0656 19.3396 25.4 24H24C19.7565 24 15.6869 25.6857 12.6863 28.6863C9.68571 31.6869 8 35.7566 8 40C8 44.2435 9.68571 48.3131 12.6863 51.3137C15.6869 54.3143 19.7565 56 24 56H72C76.2435 56 80.3131 54.3143 83.3137 51.3137C86.3143 48.3131 88 44.2435 88 40C88 35.7566 86.3143 31.6869 83.3137 28.6863C80.3131 25.6857 76.2435 24 72 24Z" fill="#EEEEEE"/>
<path d="M50.44 48L36 69.28H46.68L41.24 88L60 64.8H48.4L50.44 48Z" fill="#FFCE00"/>
</svg>
