<svg width="48" height="48" viewBox="0 0 48 48" fill="none" xmlns="http://www.w3.org/2000/svg">
<path d="M44 26C44 15.3 35.58 6.58 25 6.06V4H23V6.06C12.42 6.58 4 15.3 4 26H16H23V37C23 41.14 21.8 42 20 42C18.2 42 17 41.14 17 37H15C15 38.74 15 44 20 44C25 44 25 38.74 25 37V26H32H44ZM6.12 24C7 16.16 12.92 9.82 20.58 8.34C18.14 11.68 16.4 18.1 16.06 24H6.12ZM18.06 24C18.54 15.5 21.9 8 24 8C26.1 8 29.46 15.5 29.94 24H18.06ZM27.44 8.34C35.08 9.82 41.02 16.16 41.9 24H31.94C31.6 18.1 29.86 11.68 27.44 8.34Z" fill="#DDDDDD"/>
</svg>
