<svg width="48" height="48" viewBox="0 0 48 48" fill="none" xmlns="http://www.w3.org/2000/svg">
<path d="M24 6C33.92 6 42 14.08 42 24C42 33.92 33.92 42 24 42C14.08 42 6 33.92 6 24C6 14.08 14.08 6 24 6ZM24 4C12.96 4 4 12.96 4 24C4 35.04 12.96 44 24 44C35.04 44 44 35.04 44 24C44 12.96 35.04 4 24 4Z" fill="#4688EC"/>
<path d="M23.9998 35.0001C18.5598 35.0001 15.3398 30.7801 15.1998 30.6001C14.8598 30.1601 14.9598 29.5401 15.3998 29.2001C15.8398 28.8601 16.4598 28.9601 16.7998 29.4001C16.8198 29.4401 19.5798 33.0001 23.9998 33.0001C28.4198 33.0001 31.1798 29.4401 31.1998 29.4001C31.5398 28.9601 32.1598 28.8801 32.5998 29.2001C33.0398 29.5401 33.1198 30.1601 32.7998 30.6001C32.6598 30.7801 29.4398 35.0001 23.9998 35.0001Z" fill="#4688EC"/>
<path d="M19.3799 17.04C18.5599 16.18 17.2199 16.18 16.3999 17.04L15.9999 17.44L15.5999 17.04C14.7799 16.2 13.4399 16.2 12.6199 17.04C11.7999 17.9 11.7999 19.26 12.6199 20.12L13.0199 20.52L15.9999 23.6L18.9799 20.52L19.3799 20.12C20.1999 19.26 20.1999 17.88 19.3799 17.04Z" fill="#4688EC"/>
<path d="M35.3799 17.04C34.5599 16.18 33.2199 16.18 32.3999 17.04L31.9999 17.44L31.5999 17.04C30.7799 16.2 29.4399 16.2 28.6199 17.04C27.7999 17.9 27.7999 19.26 28.6199 20.12L29.0199 20.52L31.9999 23.6L34.9799 20.52L35.3799 20.12C36.1999 19.26 36.1999 17.88 35.3799 17.04Z" fill="#4688EC"/>
</svg>
