<svg width="48" height="48" viewBox="0 0 48 48" fill="none" xmlns="http://www.w3.org/2000/svg">
<path d="M24 6C33.92 6 42 14.08 42 24C42 33.92 33.92 42 24 42C14.08 42 6 33.92 6 24C6 14.08 14.08 6 24 6ZM24 4C12.96 4 4 12.96 4 24C4 35.04 12.96 44 24 44C35.04 44 44 35.04 44 24C44 12.96 35.04 4 24 4Z" fill="#17AD26"/>
<path d="M16 18C14.9 18 14 18.9 14 20C14 21.1 14.9 22 16 22C17.1 22 18 21.1 18 20C18 18.9 17.1 18 16 18Z" fill="#17AD26"/>
<path d="M32 18C30.9 18 30 18.9 30 20C30 21.1 30.9 22 32 22C33.1 22 34 21.1 34 20C34 18.9 33.1 18 32 18Z" fill="#17AD26"/>
<path d="M23.9998 35.0001C18.5598 35.0001 15.3398 30.7801 15.1998 30.6001C14.8598 30.1601 14.9598 29.5401 15.3998 29.2001C15.8398 28.8601 16.4598 28.9601 16.7998 29.4001C16.8198 29.4401 19.5798 33.0001 23.9998 33.0001C28.4198 33.0001 31.1798 29.4401 31.1998 29.4001C31.5398 28.9601 32.1598 28.8801 32.5998 29.2001C33.0398 29.5401 33.1198 30.1601 32.7998 30.6001C32.6598 30.7801 29.4398 35.0001 23.9998 35.0001Z" fill="#17AD26"/>
</svg>
